<svg xmlns="http://www.w3.org/2000/svg" xmlns:xlink="http://www.w3.org/1999/xlink" width="800" zoomAndPan="magnify" viewBox="0 0 600 599.999999" height="800" preserveAspectRatio="xMidYMid meet" version="1.0"><defs><clipPath id="98d29835a4"><path d="M 77.117188 60 L 296.867188 60 L 296.867188 279.75 L 77.117188 279.75 Z M 77.117188 60 " clip-rule="nonzero"/></clipPath><clipPath id="19828f1321"><path d="M 81.484375 320.363281 L 301 320.363281 L 301 540 L 81.484375 540 Z M 81.484375 320.363281 " clip-rule="nonzero"/></clipPath><clipPath id="e3342f6ea7"><path d="M 243.015625 159.675781 L 522.765625 159.675781 L 522.765625 439.425781 L 243.015625 439.425781 Z M 243.015625 159.675781 " clip-rule="nonzero"/></clipPath></defs><g clip-path="url(#98d29835a4)"><path fill="#2f473f" d="M 288.75 186.992188 C 293.058594 186.992188 296.585938 183.46875 296.585938 179.15625 L 296.585938 160.214844 C 296.585938 155.90625 293.058594 152.378906 288.75 152.378906 L 280.617188 152.378906 C 276.308594 152.378906 271.746094 149.007812 270.476562 144.890625 L 263.535156 128.035156 C 261.5 124.238281 262.324219 118.640625 265.371094 115.59375 L 271.128906 109.835938 C 274.171875 106.789062 274.175781 101.804688 271.128906 98.753906 L 257.734375 85.359375 C 254.6875 82.3125 249.699219 82.3125 246.652344 85.359375 L 240.894531 91.121094 C 237.847656 94.167969 232.246094 94.988281 228.449219 92.949219 L 211.597656 86.011719 C 207.480469 84.746094 204.109375 80.183594 204.109375 75.875 L 204.109375 67.738281 C 204.109375 63.429688 200.585938 59.902344 196.273438 59.902344 L 177.332031 59.902344 C 173.023438 59.902344 169.496094 63.429688 169.496094 67.738281 L 169.496094 75.875 C 169.496094 80.183594 166.125 84.746094 162.007812 86.011719 L 145.15625 92.949219 C 141.359375 94.988281 135.761719 94.164062 132.714844 91.117188 L 126.957031 85.359375 C 123.910156 82.3125 118.921875 82.3125 115.875 85.359375 L 102.480469 98.753906 C 99.433594 101.800781 99.433594 106.785156 102.480469 109.832031 L 108.242188 115.59375 C 111.289062 118.640625 112.113281 124.238281 110.074219 128.035156 L 103.132812 144.890625 C 101.867188 149.007812 97.304688 152.375 92.996094 152.375 L 84.863281 152.375 C 80.554688 152.375 77.027344 155.902344 77.027344 160.210938 L 77.027344 179.15625 C 77.027344 183.46875 80.554688 186.992188 84.863281 186.992188 L 92.996094 186.992188 C 97.304688 186.992188 101.867188 190.363281 103.132812 194.480469 L 110.078125 211.335938 C 112.117188 215.128906 111.292969 220.730469 108.246094 223.777344 L 102.484375 229.539062 C 99.4375 232.582031 99.4375 237.566406 102.484375 240.617188 L 115.875 254.011719 C 118.921875 257.058594 123.910156 257.054688 126.957031 254.011719 L 132.71875 248.25 C 135.765625 245.203125 141.363281 244.378906 145.160156 246.417969 L 162.011719 253.359375 C 166.128906 254.628906 169.5 259.1875 169.5 263.5 L 169.5 271.632812 C 169.5 275.941406 173.023438 279.46875 177.332031 279.46875 L 196.277344 279.46875 C 200.585938 279.46875 204.113281 275.941406 204.113281 271.632812 L 204.113281 263.496094 C 204.113281 259.1875 207.480469 254.628906 211.601562 253.359375 L 228.453125 246.417969 C 232.246094 244.378906 237.847656 245.203125 240.894531 248.25 L 246.65625 254.011719 C 249.703125 257.058594 254.691406 257.054688 257.734375 254.011719 L 271.128906 240.617188 C 274.175781 237.570312 274.179688 232.582031 271.128906 229.535156 L 265.371094 223.777344 C 262.324219 220.730469 261.5 215.128906 263.539062 211.332031 L 270.476562 194.480469 C 271.746094 190.363281 276.308594 186.992188 280.617188 186.992188 Z M 186.804688 214.851562 C 161.859375 214.851562 141.636719 194.628906 141.636719 169.6875 C 141.636719 144.738281 161.859375 124.519531 186.804688 124.519531 C 211.746094 124.519531 231.96875 144.738281 231.96875 169.6875 C 231.96875 194.628906 211.746094 214.851562 186.804688 214.851562 Z M 186.804688 214.851562 " fill-opacity="1" fill-rule="nonzero"/></g><g clip-path="url(#19828f1321)"><path fill="#008440" d="M 293.121094 447.355469 C 297.429688 447.355469 300.953125 443.828125 300.953125 439.519531 L 300.953125 420.578125 C 300.953125 416.265625 297.429688 412.742188 293.121094 412.742188 L 284.984375 412.742188 C 280.675781 412.742188 276.117188 409.371094 274.847656 405.25 L 267.90625 388.398438 C 265.867188 384.601562 266.695312 379.003906 269.738281 375.957031 L 275.496094 370.199219 C 278.542969 367.152344 278.542969 362.167969 275.496094 359.117188 L 262.101562 345.722656 C 259.054688 342.675781 254.070312 342.675781 251.019531 345.722656 L 245.261719 351.480469 C 242.214844 354.53125 236.613281 355.351562 232.820312 353.3125 L 215.964844 346.375 C 211.847656 345.105469 208.480469 340.546875 208.480469 336.234375 L 208.480469 328.101562 C 208.480469 323.792969 204.953125 320.265625 200.644531 320.265625 L 181.699219 320.265625 C 177.390625 320.265625 173.867188 323.792969 173.867188 328.101562 L 173.867188 336.234375 C 173.867188 340.546875 170.492188 345.105469 166.378906 346.375 L 149.527344 353.3125 C 145.726562 355.351562 140.128906 354.527344 137.082031 351.480469 L 131.324219 345.722656 C 128.277344 342.671875 123.292969 342.671875 120.246094 345.722656 L 106.851562 359.117188 C 103.800781 362.164062 103.800781 367.148438 106.851562 370.195312 L 112.609375 375.957031 C 115.660156 379.003906 116.480469 384.601562 114.445312 388.398438 L 107.503906 405.25 C 106.234375 409.371094 101.671875 412.738281 97.363281 412.738281 L 89.230469 412.738281 C 84.921875 412.738281 81.398438 416.265625 81.398438 420.574219 L 81.398438 439.519531 C 81.398438 443.828125 84.921875 447.355469 89.230469 447.355469 L 97.363281 447.355469 C 101.671875 447.355469 106.234375 450.722656 107.503906 454.84375 L 114.445312 471.699219 C 116.488281 475.492188 115.660156 481.09375 112.613281 484.140625 L 106.851562 489.902344 C 103.804688 492.945312 103.804688 497.929688 106.851562 500.980469 L 120.246094 514.375 C 123.292969 517.421875 128.277344 517.417969 131.324219 514.375 L 137.085938 508.613281 C 140.132812 505.566406 145.734375 504.742188 149.527344 506.78125 L 166.378906 513.722656 C 170.5 514.988281 173.867188 519.550781 173.867188 523.863281 L 173.867188 531.996094 C 173.867188 536.304688 177.394531 539.832031 181.703125 539.832031 L 200.648438 539.832031 C 204.957031 539.832031 208.480469 536.304688 208.480469 531.996094 L 208.480469 523.859375 C 208.480469 519.550781 211.851562 514.988281 215.96875 513.71875 L 232.820312 506.78125 C 236.617188 504.742188 242.21875 505.566406 245.261719 508.613281 L 251.027344 514.375 C 254.070312 517.421875 259.058594 517.417969 262.105469 514.375 L 275.5 500.980469 C 278.542969 497.933594 278.546875 492.945312 275.5 489.898438 L 269.742188 484.140625 C 266.695312 481.089844 265.871094 475.488281 267.90625 471.695312 L 274.847656 454.84375 C 276.113281 450.722656 280.675781 447.355469 284.988281 447.355469 Z M 191.171875 475.214844 C 166.230469 475.214844 146.007812 454.992188 146.007812 430.046875 C 146.007812 405.101562 166.230469 384.882812 191.171875 384.882812 C 216.113281 384.882812 236.339844 405.101562 236.339844 430.046875 C 236.339844 454.992188 216.113281 475.214844 191.171875 475.214844 Z M 191.171875 475.214844 " fill-opacity="1" fill-rule="nonzero"/></g><g clip-path="url(#e3342f6ea7)"><path fill="#16c64f" d="M 512.691406 321.496094 C 518.179688 321.496094 522.671875 317.003906 522.671875 311.511719 L 522.671875 287.375 C 522.671875 281.882812 518.179688 277.390625 512.691406 277.390625 L 502.324219 277.390625 C 496.832031 277.390625 491.023438 273.09375 489.40625 267.847656 L 480.558594 246.371094 C 477.964844 241.535156 479.015625 234.398438 482.894531 230.519531 L 490.234375 223.179688 C 494.113281 219.296875 494.117188 212.945312 490.234375 209.0625 L 473.164062 191.992188 C 469.28125 188.109375 462.929688 188.109375 459.046875 191.992188 L 451.707031 199.332031 C 447.824219 203.214844 440.6875 204.261719 435.851562 201.664062 L 414.375 192.820312 C 409.128906 191.207031 404.835938 185.394531 404.835938 179.902344 L 404.835938 169.535156 C 404.835938 164.046875 400.34375 159.554688 394.851562 159.554688 L 370.710938 159.554688 C 365.222656 159.554688 360.730469 164.046875 360.730469 169.535156 L 360.730469 179.902344 C 360.730469 185.394531 356.433594 191.207031 351.1875 192.820312 L 329.714844 201.664062 C 324.875 204.261719 317.742188 203.210938 313.859375 199.328125 L 306.523438 191.988281 C 302.640625 188.105469 296.285156 188.105469 292.402344 191.988281 L 275.335938 209.058594 C 271.453125 212.941406 271.453125 219.292969 275.335938 223.175781 L 282.675781 230.515625 C 286.558594 234.398438 287.609375 241.535156 285.011719 246.371094 L 276.167969 267.847656 C 274.554688 273.09375 268.738281 277.386719 263.25 277.386719 L 252.886719 277.386719 C 247.394531 277.386719 242.902344 281.878906 242.902344 287.371094 L 242.902344 311.511719 C 242.902344 317.003906 247.394531 321.496094 252.886719 321.496094 L 263.25 321.496094 C 268.738281 321.496094 274.554688 325.789062 276.167969 331.039062 L 285.015625 352.515625 C 287.613281 357.351562 286.5625 364.488281 282.679688 368.367188 L 275.339844 375.710938 C 271.453125 379.589844 271.453125 385.941406 275.339844 389.828125 L 292.402344 406.894531 C 296.285156 410.777344 302.640625 410.773438 306.523438 406.894531 L 313.863281 399.554688 C 317.746094 395.671875 324.882812 394.621094 329.71875 397.21875 L 351.191406 406.066406 C 356.441406 407.679688 360.734375 413.488281 360.734375 418.984375 L 360.734375 429.351562 C 360.734375 434.839844 365.226562 439.332031 370.714844 439.332031 L 394.855469 439.332031 C 400.347656 439.332031 404.839844 434.839844 404.839844 429.351562 L 404.839844 418.980469 C 404.839844 413.488281 409.132812 407.679688 414.378906 406.0625 L 435.855469 397.21875 C 440.691406 394.621094 447.828125 395.667969 451.707031 399.554688 L 459.050781 406.894531 C 462.933594 410.777344 469.289062 410.773438 473.167969 406.894531 L 490.238281 389.828125 C 494.117188 385.945312 494.121094 379.589844 490.238281 375.707031 L 482.898438 368.367188 C 479.015625 364.484375 477.96875 357.347656 480.5625 352.511719 L 489.40625 331.039062 C 491.019531 325.789062 496.832031 321.496094 502.328125 321.496094 Z M 382.78125 356.996094 C 351 356.996094 325.230469 331.226562 325.230469 299.445312 C 325.230469 267.65625 351 241.890625 382.78125 241.890625 C 414.566406 241.890625 440.335938 267.65625 440.335938 299.445312 C 440.335938 331.226562 414.566406 356.996094 382.78125 356.996094 Z M 382.78125 356.996094 " fill-opacity="1" fill-rule="nonzero"/></g></svg>